<svg xmlns="http://www.w3.org/2000/svg" width="600" height="507.172" viewBox="0 0 600 507.172"><path d="M124.437 129.968a12.601 12.601 0 0 0 8.532 2.8h217.064c3.165.201 6.29-.799 8.75-2.8a8.751 8.751 0 0 0 3.326-6.695v-22.27a8.488 8.488 0 0 0-3.325-6.695 12.382 12.382 0 0 0-8.751-2.8H132.969a12.382 12.382 0 0 0-8.532 2.8 8.357 8.357 0 0 0-3.326 6.694v22.271a8.488 8.488 0 0 0 3.326 6.695zm140.582 371.91c-55 0-59.375-4.595-95.297-40.43l-11.332-12.425c-36.272-36.316-41.83-41.873-99.147-41.873H0v5.294h59.243c55.13 0 59.68 4.55 95.296 40.21l11.508 12.645c35.484 35.485 42.091 41.873 98.972 41.873H599.43v-5.294H265.02z" fill="#af1280"/><path d="M406.607 131.412a13.126 13.126 0 0 0 8.313 2.887h50.58c3.02.023 5.957-.997 8.313-2.887a8.05 8.05 0 0 0 3.5-6.607v-24.153a10.413 10.413 0 0 0-3.5-7.306 11.508 11.508 0 0 0-8.313-3.457h-50.58a11.376 11.376 0 0 0-8.313 3.544 10.501 10.501 0 0 0-3.544 7.22v24.152a8.094 8.094 0 0 0 3.544 6.607zm-403.063 0a13.126 13.126 0 0 0 8.313 2.887h50.624a13.126 13.126 0 0 0 8.27-2.887 7.963 7.963 0 0 0 3.631-6.52v-24.24a10.326 10.326 0 0 0-3.544-7.306 11.332 11.332 0 0 0-8.357-3.457H11.857a11.42 11.42 0 0 0-8.313 3.544A10.676 10.676 0 0 0 0 100.653v24.152a8.182 8.182 0 0 0 3.544 6.607zM256.53 6.582a10.632 10.632 0 0 0-4.375-4.376 12.645 12.645 0 0 0-7.132-2.188H194.75a12.382 12.382 0 0 0-8.533 2.8 8.488 8.488 0 0 0-3.325 6.695v58.499h73.638V6.582zm150.077 347.45a12.689 12.689 0 0 0 8.313 2.844h50.58c3.019.058 5.962-.95 8.313-2.843a8.094 8.094 0 0 0 3.5-6.607V167.202a10.588 10.588 0 0 0-3.5-7.35 11.639 11.639 0 0 0-8.313-3.5h-50.58a11.464 11.464 0 0 0-8.313 3.5 10.676 10.676 0 0 0-3.544 7.35v180.224a8.138 8.138 0 0 0 3.544 6.607zm-214.089-12.994a48.13 48.13 0 0 0 24.94 11.813 243.142 243.142 0 0 0 49.442 3.807h84.227a11.42 11.42 0 0 0 8.27-3.544 10.283 10.283 0 0 0 3.762-7.439v-21.877a8.27 8.27 0 0 0-3.763-6.563 12.776 12.776 0 0 0-8.27-2.887h-80.813a15.358 15.358 0 0 1-11.157-2.845 19.689 19.689 0 0 1-2.626-12.338v-144.17h-73.638v132.75c0 12.382.263 23.058.963 31.81a33.34 33.34 0 0 0 8.663 21.483zM596.456 93.433h-.175a11.42 11.42 0 0 0-8.27-3.544h-50.448a11.42 11.42 0 0 0-8.313 3.544 10.501 10.501 0 0 0-3.544 7.307v24.152a8.095 8.095 0 0 0 3.544 6.607 13.127 13.127 0 0 0 8.313 2.888h50.623a13.126 13.126 0 0 0 8.27-2.888 7.963 7.963 0 0 0 3.544-6.607v-24.24a10.326 10.326 0 0 0-3.544-7.219zM3.544 354.033a12.776 12.776 0 0 0 8.313 2.843h50.624a12.645 12.645 0 0 0 8.27-2.843 8.007 8.007 0 0 0 3.631-6.607V167.202a10.5 10.5 0 0 0-3.544-7.35 11.464 11.464 0 0 0-8.357-3.5H11.857a11.551 11.551 0 0 0-8.313 3.5A10.851 10.851 0 0 0 0 167.202v180.224a8.27 8.27 0 0 0 3.544 6.607zm592.912-194.181a11.551 11.551 0 0 0-8.27-3.5h-50.623a11.551 11.551 0 0 0-8.313 3.5 10.676 10.676 0 0 0-3.544 7.35v180.224a8.138 8.138 0 0 0 3.544 6.607 12.776 12.776 0 0 0 8.313 2.843h50.623c3.006.059 5.936-.949 8.27-2.843a8.007 8.007 0 0 0 3.544-6.607V167.202a10.501 10.501 0 0 0-3.544-7.35zM140.669 424.695l-11.113 5.6c-36.01 16.365-40.604 18.509-96.26 18.509H.395v5.294h32.903c56.793 0 62.35-2.538 98.272-19.033l11.244-5.644c35.397-16.058 40.823-18.508 96.26-18.508H599.43v-5.294H239.16c-56.618 0-62.13 2.494-98.49 19.076z" fill="#4a4a49"/></svg>